<svg id="visual" viewBox="0 0 960 540" width="960" height="540" xmlns="http://www.w3.org/2000/svg" xmlns:xlink="http://www.w3.org/1999/xlink" version="1.1"><path d="M0 222L14.5 203.2C29 184.3 58 146.7 87.2 123.3C116.3 100 145.7 91 174.8 96.3C204 101.7 233 121.3 262 128.5C291 135.7 320 130.3 349 134C378 137.7 407 150.3 436.2 161.2C465.3 172 494.7 181 523.8 175.7C553 170.3 582 150.7 611 136.3C640 122 669 113 698 119.2C727 125.3 756 146.7 785.2 152.8C814.3 159 843.7 150 872.8 144.7C902 139.3 931 137.7 945.5 136.8L960 136L960 0L945.5 0C931 0 902 0 872.8 0C843.7 0 814.3 0 785.2 0C756 0 727 0 698 0C669 0 640 0 611 0C582 0 553 0 523.8 0C494.7 0 465.3 0 436.2 0C407 0 378 0 349 0C320 0 291 0 262 0C233 0 204 0 174.8 0C145.7 0 116.3 0 87.2 0C58 0 29 0 14.5 0L0 0Z" fill="#8993ff"></path><path d="M0 298L14.5 283.7C29 269.3 58 240.7 87.2 211C116.3 181.3 145.7 150.7 174.8 147C204 143.3 233 166.7 262 182.8C291 199 320 208 349 209.8C378 211.7 407 206.3 436.2 208.2C465.3 210 494.7 219 523.8 219.8C553 220.7 582 213.3 611 201.7C640 190 669 174 698 178.5C727 183 756 208 785.2 223.2C814.3 238.3 843.7 243.7 872.8 243.7C902 243.7 931 238.3 945.5 235.7L960 233L960 134L945.5 134.8C931 135.7 902 137.3 872.8 142.7C843.7 148 814.3 157 785.2 150.8C756 144.7 727 123.3 698 117.2C669 111 640 120 611 134.3C582 148.7 553 168.3 523.8 173.7C494.7 179 465.3 170 436.2 159.2C407 148.3 378 135.7 349 132C320 128.3 291 133.7 262 126.5C233 119.3 204 99.7 174.8 94.3C145.7 89 116.3 98 87.2 121.3C58 144.7 29 182.3 14.5 201.2L0 220Z" fill="#abadff"></path><path d="M0 395L14.5 395C29 395 58 395 87.2 388.7C116.3 382.3 145.7 369.7 174.8 367C204 364.3 233 371.7 262 386.2C291 400.7 320 422.3 349 412.5C378 402.7 407 361.3 436.2 343.3C465.3 325.3 494.7 330.7 523.8 337.8C553 345 582 354 611 363C640 372 669 381 698 378.3C727 375.7 756 361.3 785.2 364.8C814.3 368.3 843.7 389.7 872.8 392.3C902 395 931 379 945.5 371L960 363L960 231L945.5 233.7C931 236.3 902 241.7 872.8 241.7C843.7 241.7 814.3 236.3 785.2 221.2C756 206 727 181 698 176.5C669 172 640 188 611 199.7C582 211.3 553 218.7 523.8 217.8C494.7 217 465.3 208 436.2 206.2C407 204.3 378 209.7 349 207.8C320 206 291 197 262 180.8C233 164.7 204 141.3 174.8 145C145.7 148.7 116.3 179.3 87.2 209C58 238.7 29 267.3 14.5 281.7L0 296Z" fill="#c9c7ff"></path><path d="M0 465L14.5 458.8C29 452.7 58 440.3 87.2 435.8C116.3 431.3 145.7 434.7 174.8 439.2C204 443.7 233 449.3 262 457.5C291 465.7 320 476.3 349 467.3C378 458.3 407 429.7 436.2 419.8C465.3 410 494.7 419 523.8 425.2C553 431.3 582 434.7 611 438.2C640 441.7 669 445.3 698 444.5C727 443.7 756 438.3 785.2 439.3C814.3 440.3 843.7 447.7 872.8 445C902 442.3 931 429.7 945.5 423.3L960 417L960 361L945.5 369C931 377 902 393 872.8 390.3C843.7 387.7 814.3 366.3 785.2 362.8C756 359.3 727 373.7 698 376.3C669 379 640 370 611 361C582 352 553 343 523.8 335.8C494.7 328.7 465.3 323.3 436.2 341.3C407 359.3 378 400.7 349 410.5C320 420.3 291 398.7 262 384.2C233 369.7 204 362.3 174.8 365C145.7 367.7 116.3 380.3 87.2 386.7C58 393 29 393 14.5 393L0 393Z" fill="#e5e3ff"></path><path d="M0 541L14.5 541C29 541 58 541 87.2 541C116.3 541 145.7 541 174.8 541C204 541 233 541 262 541C291 541 320 541 349 541C378 541 407 541 436.2 541C465.3 541 494.7 541 523.8 541C553 541 582 541 611 541C640 541 669 541 698 541C727 541 756 541 785.2 541C814.3 541 843.7 541 872.8 541C902 541 931 541 945.5 541L960 541L960 415L945.5 421.3C931 427.7 902 440.3 872.8 443C843.7 445.7 814.3 438.3 785.2 437.3C756 436.3 727 441.7 698 442.5C669 443.3 640 439.7 611 436.2C582 432.7 553 429.3 523.8 423.2C494.7 417 465.3 408 436.2 417.8C407 427.7 378 456.3 349 465.3C320 474.3 291 463.7 262 455.5C233 447.3 204 441.7 174.8 437.2C145.7 432.7 116.3 429.3 87.2 433.8C58 438.3 29 450.7 14.5 456.8L0 463Z" fill="#ffffff"></path></svg>